<svg xmlns="http://www.w3.org/2000/svg" viewBox="252 125 528 103"><path fill="currentColor" d="M287.4034 158.0676c-.0442 19.2186-.1945 38.0436.0364 56.864.06 4.8944-1.6798 6.3168-6.3576 6.264-10.1343-.1146-10.1476.0804-10.156-10.0536-.0145-17.4907-.1383-34.983.0633-52.4713.054-4.6806-1.1825-6.7273-6.2056-6.2394-6.0205.5848-6.899-.4824-7.0212-6.6056-.2583-12.9458-.2584-12.9577 12.679-12.9574q84.9553.0018 169.9105.0182c8.7368.0017 8.9836.2636 8.9876 8.9668.0004.9995.0018 1.999-.002 2.9984-.0287 7.304-.186 7.731-7.6317 7.465-4.6338-.1654-5.5462 1.7041-5.5065 5.8658.1778 18.6552.0875 37.313.0732 55.9698-.005 6.5617-.2572 6.798-6.6447 6.904-1.1658.0193-2.3437-.0954-3.496.0323-4.7808.5296-6.414-1.5693-6.365-6.3208.1826-17.6553.0682-35.3139.0278-52.9711-.0041-1.7904.3972-3.6598-.777-5.7118-6.8597-.0738-13.6445 1.752-20.526 2.518-26.3902 2.9374-52.7663 3.4774-79.2305.9956-9.1182-.855-18.1692-2.0796-27.2378-3.258-1.586-.206-3.7558-1.4635-4.6202 1.7271"/><path fill="currentColor" d="M563.2105 141.9355c8.8525 14.289 2.5762 23.758-9.6868 31.197 1.9504 2.3947 4.479 2.4085 6.5332 3.2994 8.4238 3.6534 13.6047 9.9609 13.9836 19.0462.3736 8.9588-3.828 16.0663-11.8042 20.5539-5.7565 3.2388-12.0475 5.0414-18.6088 5.1512-13.825.2311-27.6559.121-41.4843.1047-1.417-.0016-3.0645.378-3.9889-1.2607.026-.3638-.0514-.9171.0869-.9777 7.146-3.1285 6.6457-9.3408 6.5967-15.5997-.1384-17.6597-.03-35.3212-.0695-52.982-.0146-6.5198 1.615-13.7323-6.6418-16.4518.0574-2.0226 1.1227-2.2581 2.0989-2.2457 15.2992.1944 30.6534-1.356 45.8809 1.0292 6.5217 1.0216 12.5266 3.4715 17.1041 9.136m-42.7982 42.126c.0232 7.9724-.2097 15.9562.1501 23.9133.2918 6.4518 1.7211 7.6234 7.7958 7.8116 3.6477.113 7.3234.1722 10.9528-.1382 10.725-.9174 17.2813-7.7779 17.5214-18.0655.251-10.7534-5.826-17.7207-16.6773-19.3544-4.4558-.6708-8.914-.7184-13.395-.8633-4.2758-.1383-6.7268 1.1688-6.3478 6.6966m20.0118-45.1937c-4.2304-1.9702-8.7472-1.4946-13.213-1.6432-3.8468-.128-5.6742 1.4922-6.356 5.321-1.0929 6.1373.074 12.2448-.2867 18.3685-.6137 10.417-.0298 10.8742 10.4595 10.7953.6637-.005 1.3278.0006 1.991-.0197 8.6179-.2639 14.8837-4.6876 16.5703-11.6944 2.1603-8.9748-.7892-16.2124-9.1651-21.1275"/><path fill="currentColor" d="M713.8787 163.7231c11.5016-6.5397 22.4972-5.7619 33.8386 1.5473-.3493-9.2248 1.3273-17.6903-1.5096-25.9308-.7101-2.063-.7571-3.6214 1.478-4.464 4.6257-1.7437 9.2862-3.3954 13.7722-5.0268 2.1437 2.0934 1.6058 4.3601 1.6073 6.4572.0165 22.643-.0077 45.2858-.0112 67.9287-.0002 1.3304.0136 2.6672.1385 3.99.4937 5.225 2.7965 6.6945 7.6984 4.9389 1.0635-.3809 1.9876-1.291 4.307-.4025-1.5977 4.6067-5.3984 6.6197-9.3643 8.1497-7.7087 2.9739-10.7045 1.6516-17.79-7.368-.634.4587-1.4063.8169-1.9034 1.407-10.1002 11.987-34.116 10.2675-43.1726-9.1752-6.9799-14.9841-2.7586-31.7743 10.911-42.0515m33.9138 19.0194c-.038-.9982-.0213-2.002-.1227-2.9937-.832-8.1455-6.7114-14.65-13.9281-15.4386-7.5915-.8297-13.4822 3.3505-16.1424 11.904-2.5363 8.155-2.3018 16.4373.077 24.5948 1.0756 3.689 2.884 7.0952 5.705 9.8416a15.25 15.25 0 0 0 16.6792 3.0831c5.734-2.464 8.198-6.7717 7.8397-13.0684-.3212-5.643-.0842-11.3177-.1077-17.9228"/><path fill="currentColor" d="M645.2567 190.0538c-.6219 17.6728-13.0077 31.1782-29.1328 32.2237-19.1982 1.2448-32.752-8.9352-35.9516-27.0024-3.3644-18.9984 13.4421-37.4881 32.9038-36.1991 18.5576 1.2291 30.4114 12.4763 32.1806 30.9778m-15.591 2.5463c-.2063-6.7543-1.8332-13.1817-4.8293-19.204-2.8514-5.7318-7.0703-9.6612-14.039-9.3394-7.0151.3239-10.9194 4.7064-12.9647 10.7279-4.106 12.0881-2.894 23.9668 2.7963 35.3012 2.6866 5.3516 7.2002 8.1083 13.4207 7.7014 5.9706-.3906 9.9004-3.7018 12.3468-8.8037 2.3247-4.8477 3.4334-10.0583 3.2691-16.3834"/><path fill="currentColor" d="M653.5803 193.999c-.0062-4.3322-.0508-8.1659-.0071-11.9985.064-5.6275.1451-11.2326-7.8829-13.715 7.1309-4.3634 13.984-5.718 20.6128-8.0284 2.0343 3.806.2155 7.642 1.7308 11.6907 2.9536-4.5754 6.1911-8.2758 10.7124-10.6038 5.5052-2.8345 10.944-2.8584 16.0743.6814 3.2484 2.2414 5.0406 5.3825 3.5277 9.4902-1.7292 4.695-5.9958 5.867-9.9417 2.8298-9.7729-7.522-17.679-4.707-20.1493 7.7066-1.926 9.6785-.833 19.5693-.5138 29.375.1488 4.5711 3.9248 6.0313 7.1994 8.6172-9.453 1.5022-18.6296 1.5008-28.2106.2335 10.8303-6.7207 5.7057-17.0467 6.848-26.2786"/><path fill="currentColor" d="M618.6514 146.3982c.9039 1.5493 2.357 2.447 2.102 4.163-5.7253 2.0401-21.9162-9.1799-26.3664-18.243 6.5034-2.9588 12.0966-1.7474 16.1547 3.514 2.6383 3.4207 5.2604 6.8539 8.1097 10.566"/></svg>
